<svg xmlns="http://www.w3.org/2000/svg" viewBox="0 0 121.17 99.29">
  <defs>
    <style>
      .cls-1 {
        fill: #2a3b30;
      }

      .cls-2 {
        fill: #b0d79a;
        stroke: #b0d79a;
        stroke-width: 5px;
      }

      .cls-2, .cls-3 {
        stroke-miterlimit: 10;
      }

      .cls-3 {
        fill: #dfe7e7;
        stroke: #dfe7e7;
      }
    </style>
  </defs>
  <title>logo-icon</title>
  <g id="Ebene_2" data-name="Ebene 2">
    <g id="wavy_background" data-name="wavy background">
      <g>
        <path class="cls-1" d="M68.7,76.37l22.8,1.85S103.85,40,100.05,30.74s-21.85,0-21.85,0S68.7,61,68.7,76.37Z"/>
        <path class="cls-1" d="M50.68,44.24S63,64,76,43,63,29.44,63,29.44s-8,3.08-4.32,9.25C58.69,38.69,49.44,42.39,50.68,44.24Z"/>
        <path class="cls-1" d="M48.7,25.74S58,32.52,61,25.12c0,0,5.55-4.32-3.09-7.4s-9.25,7.4-9.25,7.4Z"/>
        <path class="cls-1" d="M18.38,36.67s3.34,21.22,14.76,21.74c0,0,11,7,4.37-10.57S19,36.25,19,36.25Z"/>
        <path class="cls-1" d="M47.68,30.35l-1.85,3.09s-4.32,1.23-1.24,8,8.64,3.7,8.64,3.7l4.31-3.08s4.32-7.4-1.23-9.25S50.76,28.5,47.68,30.35Z"/>
        <path class="cls-1" d="M25.58,28.1s3.08,14.8,20.35,6.79c0,0,9.54,0,12.17,4.29,0,0-2.31-4.91-11.56-5.53,0,0,0-9.86-8.63-8.63l-1.23-.62-.62.62-1.23-.62v1.24L31.74,24.4v1.85A13.23,13.23,0,0,0,25.58,28.1Z"/>
        <path class="cls-1" d="M59.88,29.82a25.62,25.62,0,0,0,3.7,1.23c.61,0,4.31,3.7,4.31,3.7a22,22,0,0,1,0,6.79c-.61,3.08-.61,1.85-.61,1.85h1.23v1.85l.62-.62,1.23,1.85,1.23-.62,1.24,1.85.61-.61,1.24,1.23.61-.62,1.24,1.24,1.23-1.24L79,48.94l.62-1.24,1.23,1.24.62-1.24,2.47,1.24V47.7l1.85.62V47.7h3.08s2.47-17.88-15.42-14.8a14.5,14.5,0,0,1-6.78-.61C63,31.05,59.88,29.82,59.88,29.82Z"/>
        <path class="cls-1" d="M46.43,37.3s-6.17-4.93-9.87-4.93-4.93,1.85-4.93,1.85-.62,1.85.61,1.85L31,40.39l1.85,2.46a6.83,6.83,0,0,0,5.55,3.09C42.11,45.94,47,41,46.43,37.3Z"/>
        <rect class="cls-1" x="44.5" y="17.6" width="78" height="3" transform="translate(0.46 40.12) rotate(-27.09)"/>
        <rect class="cls-1" x="45.5" y="24.6" width="78" height="3" transform="translate(-3.59 33.88) rotate(-22.21)"/>
        <path class="cls-2" d="M2.5,42.21v.1c0,29.81,24.85,54,55.5,54s55.5-24.15,55.5-54v-.1Z"/>
        <path class="cls-3" d="M57.82,39.53V98.79c33.45,0,60.57-26.36,60.57-58.89,0-.12,0-.24,0-.37Z"/>
      </g>
    </g>
  </g>
</svg>
