<svg xmlns="http://www.w3.org/2000/svg" xmlns:xlink="http://www.w3.org/1999/xlink" viewBox="0 0 357.36 171.9">
  <defs>
    <style>
      .cls-1 {
        fill: #ecf1f1;
      }

      .cls-2, .cls-3, .cls-7, .cls-8 {
        fill: #7cbc57;
      }

      .cls-3, .cls-4 {
        opacity: 0.45;
      }

      .cls-20, .cls-4, .cls-5 {
        fill: none;
      }

      .cls-4, .cls-5, .cls-7 {
        stroke: #c4e8e8;
      }

      .cls-16, .cls-18, .cls-19, .cls-20, .cls-4, .cls-5, .cls-7 {
        stroke-miterlimit: 10;
      }

      .cls-6 {
        opacity: 0.74;
      }

      .cls-8 {
        opacity: 0.55;
      }

      .cls-9 {
        fill: #eedfc0;
      }

      .cls-10 {
        fill: #5dc0c1;
      }

      .cls-11 {
        fill: #2a3b30;
      }

      .cls-12 {
        fill: #0f6464;
      }

      .cls-13 {
        fill: #ff7f54;
      }

      .cls-14 {
        fill: #ffb298;
      }

      .cls-15 {
        fill: #e8db42;
      }

      .cls-16, .cls-24 {
        fill: #eef8f8;
      }

      .cls-16 {
        stroke: #eef8f8;
      }

      .cls-17 {
        fill: #ffc100;
      }

      .cls-18, .cls-21 {
        fill: #fef76e;
      }

      .cls-18 {
        stroke: #fef76e;
      }

      .cls-19, .cls-20 {
        stroke: #fff;
      }

      .cls-19 {
        stroke-width: 4px;
        fill: url(#Unbenannter_Verlauf_36);
      }

      .cls-20 {
        stroke-width: 2px;
      }

      .cls-22 {
        fill: #fff;
      }

      .cls-22, .cls-27 {
        opacity: 0.53;
      }

      .cls-23 {
        fill: #3e5e2c;
      }

      .cls-25 {
        fill: #0d2337;
      }

      .cls-26 {
        fill: #dfe7e7;
      }

      .cls-27 {
        fill: #c0dfae;
      }
    </style>
    <linearGradient id="Unbenannter_Verlauf_36" data-name="Unbenannter Verlauf 36" x1="187.2" y1="145.47" x2="217.63" y2="145.47" gradientUnits="userSpaceOnUse">
      <stop offset="0" stop-color="#f6ffbc"/>
      <stop offset="0.28" stop-color="#f8fdaa"/>
      <stop offset="0.84" stop-color="#fdf87c"/>
      <stop offset="1" stop-color="#fef76e"/>
    </linearGradient>
  </defs>
  <title>logo</title>
  <g id="Ebene_2" data-name="Ebene 2">
    <g id="wavy_background" data-name="wavy background">
      <g>
        <path class="cls-1" d="M.51,149.54s-1.7-33.29,33.9-32.48S87,91.89,87,91.89,113.24,40.73,143.76,61c12.36,8.22,28.61,12.15,42.06,3.92,11.73-7.17,10.89-20,17.25-30.51,5.37-8.85,14.78-15.47,23.83-20.57C251.14.23,283.18-5.41,309.05,7.43c45.77,22.74,48.31,58.47,48.31,58.47V168.22H.51Z"/>
        <rect class="cls-2" x="228.5" y="160.22" width="123" height="8" rx="4"/>
        <path class="cls-3" d="M29.64,171.31s-41.39-48.69-26.35-70.19,33.54,64.43,33.54,64.43Z"/>
        <path class="cls-4" d="M8.19,112.15S20.79,148.49,26.84,157"/>
        <line class="cls-4" x1="14.22" y1="129.69" x2="7.39" y2="127.35"/>
        <line class="cls-4" x1="17.88" y1="138.07" x2="22.74" y2="130.79"/>
        <line class="cls-4" x1="20.85" y1="145.21" x2="13.79" y2="142.2"/>
        <line class="cls-4" x1="23.68" y1="151.39" x2="27.26" y2="145.27"/>
        <path class="cls-2" d="M129.5,164.22s27-90-31-133l-32-17,7,33,5,2-2,7,5,2-3,7h7l-2,7,9-2-6,14,9,1-3,9,9,4-6,5S127.5,139.22,129.5,164.22Z"/>
        <path class="cls-5" d="M94.5,47.22s29,38,34,99"/>
        <g class="cls-6">
          <path class="cls-2" d="M303.32,163.74s-21.93-43.2,25.18-63.84l26-8.16-5.69,15.84-4.06,1,1.62,3.36-4.06,1,2.44,3.36h-5.69l1.63,3.36-7.31-1,4.87,6.72-7.31.48,2.44,4.32-7.32,1.92,4.88,2.4S304.94,151.74,303.32,163.74Z"/>
          <path class="cls-7" d="M331.75,107.58s-23.56,18.24-27.62,47.52"/>
        </g>
        <path class="cls-8" d="M261.42,156.52S247.67,62.61,277.2,17.74L293.5,0l-3.57,34.43-2.54,2.09,1,7.31-2.54,2.08,1.53,7.31h-3.57l1,7.3-4.58-2.09L283.31,73l-4.58,1,1.53,9.39-4.59,4.17,3.06,5.22S262.44,130.43,261.42,156.52Z"/>
        <path class="cls-5" d="M279.24,34.43s-14.77,39.66-17.31,103.31"/>
        <path class="cls-9" d="M186,147.53l22.8,1.85s12.35-38.23,8.55-47.48-21.85,0-21.85,0S186,132.11,186,147.53Z"/>
        <path class="cls-9" d="M169,115.4s12.33,19.73,25.28-1.24-12.95-13.56-12.95-13.56-8,3.08-4.31,9.25C177,109.85,167.75,113.55,169,115.4Z"/>
        <path class="cls-9" d="M166,96.9s9.25,6.78,12.33-.62c0,0,5.55-4.32-3.08-7.4s-9.25,7.4-9.25,7.4Z"/>
        <path class="cls-10" d="M156.81,124.16s11.69,8.58,15.59-.78c0,0,7-5.45-3.9-9.35s-11.69,9.35-11.69,9.35Z"/>
        <path class="cls-9" d="M135.69,107.83s3.34,21.22,14.76,21.73c0,0,11,7,4.36-10.56s-18.46-11.59-18.46-11.59Z"/>
        <path class="cls-9" d="M165,101.51l-1.85,3.09s-4.32,1.23-1.23,8,8.63,3.7,8.63,3.7l4.32-3.08s4.31-7.4-1.24-9.25S168.06,99.66,165,101.51Z"/>
        <path class="cls-10" d="M172.53,123.58l3.08,4.93s9.87,8,12.34,1.85.61-9.86-4.94-8.63S172.53,123.58,172.53,123.58Z"/>
        <path class="cls-11" d="M142.88,97.26s3.08,14.8,20.35,6.79c0,0,9.54-.06,12.17,4.29,0,0-2.3-4.91-11.55-5.53,0,0,0-9.86-8.64-8.63L154,93.56l-.62.62-1.23-.62V94.8l-3.08-1.24v1.85A13.25,13.25,0,0,0,142.88,97.26Z"/>
        <path class="cls-11" d="M177.18,101a25.62,25.62,0,0,0,3.7,1.23c.62,0,4.32,3.7,4.32,3.7a22.4,22.4,0,0,1,0,6.79c-.62,3.08-.62,1.85-.62,1.85h1.23v1.85l.62-.62,1.23,1.85,1.24-.62,1.23,1.85.62-.61,1.23,1.23.62-.62,1.23,1.24,1.23-1.24,1.24,1.24.61-1.24,1.24,1.24.61-1.24,2.47,1.24v-1.24l1.85.62v-.62h3.08s2.47-17.88-15.41-14.8a14.55,14.55,0,0,1-6.79-.61C180.26,102.21,177.18,101,177.18,101Z"/>
        <path class="cls-12" d="M174.53,111.38a16.48,16.48,0,0,0-1.71,1.81c-.17.36-3.32,1.51-3.32,1.51a14.24,14.24,0,0,1-3.94-1.83c-1.62-1.19-.9-.86-.9-.86l-.34.72-1.07-.5.19.52L162,113l0,.88-1.41.22.19.52-1.05.39.19.52-1,.38.39,1.05-1,.39.55.69-1,.38.55.69-1.39,1.1.72.33-.86.91.36.17-.83,1.79s9.72,6.26,12.76-5a9.27,9.27,0,0,1,2.19-3.77C173,112.84,174.53,111.38,174.53,111.38Z"/>
        <path class="cls-12" d="M161.43,120.5s3.08,11.1,9.25,11.1l-2.47,3.7s3.7-2.47,3.7-3.7-1.85-1.24-1.85-1.24-4.31-4.31-4.31-7.4Z"/>
        <path class="cls-10" d="M189.43,131.51s-10.35,8.56-12.07,8.56,3.42,4.31,3.42,4.31,5.17-1.7,6-4.28h4.3a10.82,10.82,0,0,1,2.58-1.71c1.73-.85-.85-2.58-.85-2.58V135Z"/>
        <path class="cls-10" d="M158.35,136.53s-5.55,4.93-1.24,6.17,3.7,4.93,3.7,4.93,3.7,3.7,6.79.62,5.55-2.47,5.55-2.47l1.85-1.85s3.7,0,4.31-1.23-1.23-4.94-1.23-4.94l-1.23-2.46.16-2.61s-1.32-3.21-5.67,0a14.14,14.14,0,0,1-9.29,2.61S159,135.91,158.35,136.53Z"/>
        <path class="cls-9" d="M163.73,108.46s-6.17-4.93-9.87-4.93-4.93,1.85-4.93,1.85-.62,1.85.62,1.85l-1.24,4.32,1.85,2.46a6.83,6.83,0,0,0,5.55,3.09C159.41,117.1,164.35,112.16,163.73,108.46Z"/>
        <rect class="cls-11" x="161.81" y="88.75" width="78" height="3" transform="translate(-19.07 101.35) rotate(-27.09)"/>
        <rect class="cls-11" x="162.81" y="95.75" width="78" height="3" transform="translate(-21.79 83.51) rotate(-22.21)"/>
        <path class="cls-13" d="M119.81,113.37v.1c0,29.8,24.84,54,55.5,54s55.5-24.16,55.5-54c0,0,0-.06,0-.1Z"/>
        <path class="cls-14" d="M175,113.37v54.3c30.65,0,55.5-24.16,55.5-54,0-.11,0-.22,0-.34Z"/>
        <polygon class="cls-15" points="235.8 72.75 235.63 72.83 235.08 71.63 235.8 72.75"/>
        <rect class="cls-13" x="242.25" y="81.22" width="43" height="85"/>
        <path class="cls-16" d="M280.5,102.94v58.53H247V102.94s12.67,1,18.11,0,14.48,0,14.48,0Z"/>
        <circle class="cls-9" cx="306" cy="135.72" r="14.5"/>
        <path class="cls-13" d="M308.5,139.22s-8-17,12-25c0,0,8-3,11,3a21.8,21.8,0,0,1,1,6s-4-3-6,0,2,6,4,8,2,6,2,6Z"/>
        <path class="cls-17" d="M299.07,167h25.46l1.55-25.72a2.81,2.81,0,0,0,0-.29,4.7,4.7,0,0,0-9.4-.28l-.12,2v-1.71a4.7,4.7,0,0,0-9.4,0v4l-.26-4.26a4.7,4.7,0,0,0-9.4.28c0,.09,0,.19,0,.29Z"/>
        <path class="cls-17" d="M331.81,167l3.68-25.09a2.81,2.81,0,0,0,0-.29,4.7,4.7,0,0,0-9.4-.29L324.55,167Z"/>
        <path class="cls-17" d="M291.24,167h7.81l-1.55-25.67a4.7,4.7,0,0,0-9.39.29v.29Z"/>
        <path class="cls-11" d="M300.5,166.93h8l-1.07-26.66a4.89,4.89,0,0,0-5.25-4.41,4.82,4.82,0,0,0-4.66,4.68,1.4,1.4,0,0,0,0,.29Z"/>
        <path class="cls-11" d="M317.5,166.93h8l.72-26.37a4.7,4.7,0,0,0-9.39-.37c0,.1,0,.2,0,.29Z"/>
        <g>
          <circle class="cls-18" cx="202.41" cy="145.47" r="18.92"/>
          <circle class="cls-19" cx="202.41" cy="145.47" r="15.22"/>
          <line class="cls-20" x1="202.55" y1="130.53" x2="202.55" y2="159.31"/>
          <line class="cls-20" x1="186.92" y1="144.51" x2="217.36" y2="144.51"/>
          <line class="cls-20" x1="192.68" y1="133.82" x2="213.65" y2="154.79"/>
          <line class="cls-20" x1="192.68" y1="155.2" x2="212.83" y2="135.05"/>
        </g>
        <g>
          <circle class="cls-21" cx="141.2" cy="150.01" r="21.82"/>
          <path class="cls-22" d="M145.73,128.66l-8.34,42.83a21.82,21.82,0,1,0,8.34-42.83Z"/>
        </g>
        <path class="cls-23" d="M144.82,125.7l-1.11,5.72a3.51,3.51,0,0,0,2.86.55l1.11-5.71Z"/>
        <path class="cls-2" d="M158.27,134.15s-1.86-6-11.54-7C146.73,127.12,147.27,133.93,158.27,134.15Z"/>
        <path class="cls-2" d="M147.68,126.26s-2.64-13.11-17-11.46C130.65,114.8,131.3,130.48,147.68,126.26Z"/>
        <path class="cls-17" d="M137.5,147.22c-6.37,0-12.41,7.62-15.15,12.91a43.5,43.5,0,0,0-86.84,3.09h102Z"/>
        <path class="cls-11" d="M61.5,123.9a43.5,43.5,0,0,0-26,39.32h26Z"/>
        <circle class="cls-24" cx="49" cy="150.72" r="5.5"/>
        <circle class="cls-25" cx="48.5" cy="150.22" r="3"/>
        <path class="cls-26" d="M66.5,126.22v8s7,2,9-2S71.5,125.22,66.5,126.22Z"/>
        <path class="cls-26" d="M66.5,137.22v8s7,2,9-2S71.5,136.22,66.5,137.22Z"/>
        <path class="cls-26" d="M66.5,148.22v8s7,2,9-2S71.5,147.22,66.5,148.22Z"/>
        <path class="cls-26" d="M78.5,124.22v8s7,2,9-2S83.5,123.22,78.5,124.22Z"/>
        <path class="cls-26" d="M79.5,136.22v8s7,2,9-2S84.5,135.22,79.5,136.22Z"/>
        <path class="cls-26" d="M79.5,147.22v8s7,2,9-2S84.5,146.22,79.5,147.22Z"/>
        <path class="cls-26" d="M92.5,128.22v8s7,2,9-2S97.5,127.22,92.5,128.22Z"/>
        <path class="cls-26" d="M92.5,139.22v8s7,2,9-2S97.5,138.22,92.5,139.22Z"/>
        <path class="cls-26" d="M92.5,150.22v8s7,2,9-2S97.5,149.22,92.5,150.22Z"/>
        <path class="cls-26" d="M105.5,141.22v8s7,2,9-2S110.5,140.22,105.5,141.22Z"/>
        <path class="cls-26" d="M105.5,152.22v8s7,2,9-2S110.5,151.22,105.5,152.22Z"/>
        <rect class="cls-2" x="15.5" y="163.22" width="131" height="7" rx="3.5"/>
        <path class="cls-25" d="M244.12,104.07l-.62,5.78a3.5,3.5,0,0,1-2.89-.31l.62-5.78Z"/>
        <path class="cls-11" d="M228.78,108.17s3.54-5.14,13.1-3.31C241.88,104.86,239.35,111.21,228.78,108.17Z"/>
        <path class="cls-11" d="M241.23,103.76s6.38-11.75,19.66-5.93C260.89,97.83,255.64,112.62,241.23,103.76Z"/>
        <circle class="cls-2" cx="242.08" cy="146.66" r="21.82"/>
        <path class="cls-27" d="M242.12,124.92l-1.27,43.62a21.82,21.82,0,0,1,1.27-43.62Z"/>
        <ellipse class="cls-2" cx="241.8" cy="121.16" rx="11.5" ry="10.5" transform="translate(97.09 349.64) rotate(-84.26)"/>
        <path class="cls-27" d="M242.31,109.68l-.56,23.5c-.13,0-1-.57-1.1-.58-5.77-.58-9.93-6.17-9.29-12.49C232,114,236.8,109.5,242.31,109.68Z"/>
      </g>
    </g>
  </g>
</svg>
